<?xml version="1.0" encoding="utf-8"?><svg xmlns="http://www.w3.org/2000/svg" xmlns:xlink="http://www.w3.org/1999/xlink"><symbol viewBox="0 0 344.96 344.96" id="check" xmlns="http://www.w3.org/2000/svg"><g data-name="Слой 2"><path d="M321.85 86.24l-40-23.11-23.1-40H212.5L172.48 0l-40 23.11H86.24l-23.11 40-40 23.1v46.21L0 172.48l23.11 40v46.21l40 23.11 23.11 40h46.21l40 23.1 40-23.11h46.21l23.11-40 40-23.11V212.5l23.11-40-23.11-40V86.24zM156.91 243.07a16.79 16.79 0 01-23.34 0l-50.45-50.44a16.19 16.19 0 010-22.89l13.35-13.35a16.19 16.19 0 0122.89 0l25.87 25.87 80.34-80.35a16.19 16.19 0 0122.89 0l13.35 13.35a16.19 16.19 0 010 22.89z" data-name="Capa 1"/></g></symbol><symbol viewBox="0 0 512 512" id="lock" xmlns="http://www.w3.org/2000/svg"><path d="M437.333 192h-32v-42.667C405.333 66.99 338.344 0 256 0S106.667 66.99 106.667 149.333V192h-32A10.66 10.66 0 0064 202.667v266.667C64 492.865 83.135 512 106.667 512h298.667C428.865 512 448 492.865 448 469.333V202.667A10.66 10.66 0 00437.333 192zM287.938 414.823a10.67 10.67 0 01-10.604 11.844h-42.667a10.67 10.67 0 01-10.604-11.844l6.729-60.51c-10.927-7.948-17.458-20.521-17.458-34.313 0-23.531 19.135-42.667 42.667-42.667s42.667 19.135 42.667 42.667c0 13.792-6.531 26.365-17.458 34.313l6.728 60.51zM341.333 192H170.667v-42.667C170.667 102.281 208.948 64 256 64s85.333 38.281 85.333 85.333V192z"/></symbol><symbol viewBox="0 0 13 8" id="price-arrow" xmlns="http://www.w3.org/2000/svg"><path d="M2.257.793L6.5 5.035 10.743.793a1 1 0 111.414 1.414l-4.95 4.95a1 1 0 01-1.414 0l-4.95-4.95A1 1 0 012.257.793z"/></symbol></svg>